# xmcd CD Database Entry
#
# Track frame offsets:
# 150
# 12707
# 27639
# 38923
# 54165
# 66280
# 78709
# 91424
# 102498
# 121663
# 132245
# 143497
# 154229
# 170423
#
# Disc length: 2433 seconds
#
# Revision: 1
# Processed by: cddbd v1.4PL0 Copyright (c) Steve Scherf et al.
# Submitted via: tcd 2.0b
#
DISCID=bd097f0e
DTITLE=Aretha Franklin - Aretha's Gold
DYEAR=1900
DGENRE=
TTITLE0=I Never Loved A Man (That Way I Love You)
TTITLE1=Do Right Woman-Do Right Man
TTITLE2=Respect
TTITLE3=Dr. Feelgood
TTITLE4=Baby, I Love You
TTITLE5=(You Make Me Feel Like) A Ntural Woman
TTITLE6=Chain Of Fools
TTITLE7=Since You've Been Gone (Sweet Sweet Baby)
TTITLE8=Ain't No Way
TTITLE9=Think
TTITLE10=You Send Me
TTITLE11=The House Jack Built
TTITLE12=I Say A Little Prayer
TTITLE13=See Saw
EXTD=
EXTT0=
EXTT1=
EXTT2=
EXTT3=
EXTT4=
EXTT5=
EXTT6=
EXTT7=
EXTT8=
EXTT9=
EXTT10=
EXTT11=
EXTT12=
EXTT13=
PLAYORDER=
